<svg xmlns="http://www.w3.org/2000/svg" xmlns:xlink="http://www.w3.org/1999/xlink" width="471" zoomAndPan="magnify" viewBox="0 0 353.25 83.999999" height="112" preserveAspectRatio="xMidYMid meet" version="1.0"><defs><g/><clipPath id="90f2cec892"><path d="M 0 6 L 68.851562 6 L 68.851562 69.148438 L 0 69.148438 Z M 0 6 " clip-rule="nonzero"/></clipPath><clipPath id="d3069782fa"><path d="M 62 0.0351562 L 75 0.0351562 L 75 29 L 62 29 Z M 62 0.0351562 " clip-rule="nonzero"/></clipPath><clipPath id="31dd131e4c"><path d="M 73.726562 0.0898438 L 75.46875 0.8125 L 63.914062 28.695312 L 62.171875 27.972656 Z M 73.726562 0.0898438 " clip-rule="nonzero"/></clipPath><clipPath id="df862517d4"><path d="M 73.726562 0.0898438 L 75.46875 0.8125 L 63.914062 28.695312 L 62.171875 27.972656 Z M 73.726562 0.0898438 " clip-rule="nonzero"/></clipPath><clipPath id="40057c4876"><path d="M 73.71875 0.105469 L 75.503906 0.847656 L 64.121094 28.3125 L 62.335938 27.574219 Z M 73.71875 0.105469 " clip-rule="nonzero"/></clipPath><clipPath id="ee73c851ec"><rect x="0" width="335" y="0" height="70"/></clipPath></defs><g transform="matrix(1, 0, 0, 1, 0, 7)"><g clip-path="url(#ee73c851ec)"><g clip-path="url(#90f2cec892)"><path fill="#6850fa" d="M 52.160156 13.335938 C 52.324219 13.183594 52.496094 13.042969 52.648438 12.882812 C 53.40625 12.082031 53.402344 11.039062 52.640625 10.167969 C 51.839844 9.25 50.691406 9.007812 49.859375 9.671875 C 49.515625 9.945312 49.230469 10.375 49.078125 10.789062 C 48.292969 12.933594 48.601562 15.050781 49.414062 17.113281 C 50.304688 19.382812 51.582031 21.4375 52.992188 23.414062 C 53.359375 23.929688 53.722656 24.449219 54.128906 24.929688 C 54.386719 25.234375 54.359375 25.457031 54.164062 25.765625 C 53.117188 27.394531 52.089844 29.035156 51.054688 30.671875 C 51 30.765625 50.941406 30.859375 50.96875 31.042969 C 51.066406 30.929688 51.160156 30.8125 51.257812 30.703125 C 53.484375 28.285156 55.988281 26.265625 59.164062 25.234375 C 61.261719 24.554688 63.371094 24.425781 65.425781 25.40625 C 68 26.636719 68.859375 29.464844 67.394531 31.722656 C 66.230469 33.515625 63.621094 33.558594 62.40625 32.152344 C 62.351562 32.089844 62.3125 32.015625 62.171875 31.816406 C 62.929688 32.21875 63.582031 32.363281 64.273438 32.097656 C 65.304688 31.695312 65.808594 30.617188 65.460938 29.53125 C 65.121094 28.46875 64.105469 27.847656 63.058594 28.152344 C 58.523438 29.480469 55.921875 32.582031 54.910156 37.117188 C 54.871094 37.277344 54.847656 37.441406 54.796875 37.710938 C 53.421875 36.792969 52.148438 35.789062 50.402344 35.476562 C 51.109375 35.992188 51.742188 36.402344 52.320312 36.882812 C 53.980469 38.265625 55.117188 40.058594 56.125 41.9375 C 56.890625 43.367188 57.613281 44.816406 58.410156 46.226562 C 58.734375 46.804688 59.144531 47.359375 59.601562 47.835938 C 60.855469 49.152344 62.773438 49.15625 64.035156 47.847656 C 64.429688 47.441406 64.765625 46.949219 65.011719 46.4375 C 65.390625 45.652344 65.25 44.933594 64.75 44.476562 C 64.226562 43.996094 63.199219 43.839844 62.546875 44.148438 C 62.367188 44.230469 62.199219 44.335938 61.945312 44.363281 C 62.085938 44.1875 62.207031 43.988281 62.371094 43.835938 C 63.195312 43.078125 64.160156 42.871094 65.222656 43.230469 C 66.285156 43.585938 66.894531 44.363281 66.988281 45.457031 C 67.191406 47.726562 66.332031 49.613281 64.585938 51.011719 C 62.800781 52.441406 60.765625 52.671875 58.640625 51.765625 C 56.878906 51.011719 55.445312 49.789062 54.105469 48.460938 C 52.074219 46.4375 50.089844 44.367188 48.035156 42.371094 C 47.339844 41.695312 46.496094 41.179688 45.652344 40.6875 C 46.164062 41.242188 46.699219 41.78125 47.1875 42.363281 C 48.867188 44.339844 49.617188 46.648438 49.28125 49.210938 C 49.054688 50.957031 48.613281 52.679688 48.199219 54.394531 C 47.769531 56.167969 47.515625 57.929688 48.371094 59.632812 C 48.660156 60.207031 49.03125 60.777344 49.503906 61.199219 C 50.402344 62.003906 51.59375 61.902344 52.484375 61.074219 C 53.394531 60.21875 53.539062 59.046875 52.820312 58.050781 C 52.570312 57.695312 52.238281 57.402344 51.882812 57.019531 C 53.25 57.375 54.304688 58.011719 54.765625 59.328125 C 55.246094 60.703125 54.890625 61.953125 53.964844 63.023438 C 52.628906 64.5625 50.882812 64.90625 49.027344 64.332031 C 45.148438 63.132812 43.054688 60.695312 42.671875 56.90625 C 42.464844 54.832031 42.367188 52.742188 42.113281 50.671875 C 41.792969 48.085938 40.875 45.695312 39.394531 43.535156 C 39.304688 43.398438 39.199219 43.273438 39.046875 43.167969 C 39.289062 43.921875 39.570312 44.660156 39.765625 45.421875 C 40.679688 48.925781 39.675781 51.945312 37.1875 54.425781 C 35.425781 56.183594 33.429688 57.703125 31.574219 59.367188 C 30.875 59.996094 30.195312 60.6875 29.652344 61.453125 C 28.570312 62.96875 28.640625 64.539062 29.714844 66.078125 C 30.476562 67.167969 31.707031 67.140625 32.394531 66.003906 C 32.941406 65.097656 32.796875 64.222656 32.199219 63.382812 C 33.019531 63.503906 33.816406 64.542969 33.867188 65.535156 C 33.976562 67.589844 31.84375 69.367188 29.667969 69.039062 C 26.5625 68.566406 24.121094 65.242188 24.527344 62.015625 C 24.785156 59.960938 25.683594 58.171875 26.925781 56.554688 C 28.027344 55.121094 29.199219 53.746094 30.285156 52.304688 C 31.855469 50.226562 32.394531 47.972656 31.273438 45.492188 C 31.21875 45.375 31.164062 45.253906 31.105469 45.136719 C 31.089844 45.109375 31.050781 45.089844 30.976562 45.03125 C 30.976562 45.160156 30.964844 45.253906 30.980469 45.347656 C 31.59375 49.5 28.972656 52.800781 24.765625 53.21875 C 22.449219 53.449219 20.15625 53.125 17.855469 52.960938 C 16.246094 52.847656 14.621094 52.800781 13.011719 52.902344 C 11.386719 53 10.378906 54.09375 9.707031 55.496094 C 9.390625 56.15625 9.324219 56.847656 9.84375 57.4375 C 10.359375 58.023438 11.046875 58.160156 11.789062 57.984375 C 12.558594 57.800781 12.976562 57.257812 13.144531 56.511719 C 13.179688 56.351562 13.191406 56.183594 13.214844 56.003906 C 14.3125 57.078125 13.863281 59.003906 12.382812 59.324219 C 10.191406 59.796875 8.308594 59.0625 6.859375 57.414062 C 5.492188 55.859375 5.664062 54.085938 6.472656 52.328125 C 7.84375 49.363281 10.292969 47.941406 13.441406 47.644531 C 15.40625 47.460938 17.382812 47.429688 19.351562 47.292969 C 20.871094 47.1875 22.355469 46.921875 23.582031 45.910156 C 24.363281 45.265625 24.820312 44.414062 25.066406 43.539062 C 24.308594 44.070312 23.574219 44.761719 22.707031 45.164062 C 19.089844 46.84375 14.460938 45.425781 12.328125 42.058594 C 11.34375 40.511719 10.277344 39.03125 8.835938 37.871094 C 7.730469 36.980469 6.519531 36.285156 5.035156 36.351562 C 4.023438 36.398438 3.1875 36.808594 2.722656 37.757812 C 2.378906 38.460938 2.476562 39.144531 2.988281 39.738281 C 3.613281 40.464844 4.402344 40.828125 5.371094 40.648438 C 5.675781 40.59375 5.964844 40.457031 6.261719 40.359375 C 6.03125 41.25 4.941406 42.054688 3.828125 42.160156 C 1.699219 42.363281 0.125 40.949219 0.09375 38.8125 C 0.0546875 36.382812 1.8125 33.769531 4.152344 33.066406 C 7.542969 32.050781 10.714844 32.425781 13.421875 34.933594 C 14.171875 35.628906 14.898438 36.355469 15.65625 37.042969 C 16.828125 38.101562 18.148438 38.847656 19.773438 38.972656 C 21.871094 39.132812 24.308594 38.050781 25.453125 36.316406 C 25.269531 36.433594 25.085938 36.546875 24.898438 36.664062 C 22.46875 38.15625 19.464844 38.027344 17.253906 36.296875 C 16.097656 35.390625 15.339844 34.179688 14.78125 32.835938 C 13.785156 30.433594 13.429688 27.886719 13.046875 25.34375 C 12.769531 23.503906 12.476562 21.664062 12.132812 19.835938 C 11.835938 18.273438 10.785156 17.355469 9.324219 16.867188 C 8.609375 16.628906 7.910156 16.636719 7.355469 17.230469 C 6.808594 17.8125 6.730469 18.523438 6.957031 19.265625 C 7.210938 20.097656 7.878906 20.53125 8.746094 20.46875 C 8.902344 20.457031 9.058594 20.429688 9.273438 20.40625 C 8.136719 21.289062 6.65625 21.152344 5.765625 20.128906 C 4.046875 18.160156 4.886719 14.816406 7.363281 13.976562 C 9.753906 13.164062 12.074219 13.402344 14.191406 14.835938 C 15.261719 15.558594 15.976562 16.625 16.316406 17.839844 C 16.800781 19.574219 17.160156 21.347656 17.507812 23.113281 C 17.851562 24.867188 18.058594 26.648438 18.824219 28.296875 C 19.664062 30.109375 21.0625 31.148438 23.042969 31.34375 C 23.632812 31.402344 24.015625 31.632812 24.382812 32.074219 C 25.269531 33.140625 26.335938 34.011719 27.597656 34.660156 C 27.121094 34.117188 26.632812 33.578125 26.167969 33.023438 C 23.511719 29.871094 21.167969 26.527344 19.929688 22.53125 C 19.207031 20.210938 18.960938 17.855469 19.683594 15.492188 C 20.613281 12.445312 22.691406 10.46875 25.601562 9.292969 C 30.550781 7.296875 36.566406 8.695312 40.058594 12.707031 C 42.261719 15.234375 43.152344 18.277344 43.277344 21.5625 C 43.433594 25.582031 42.488281 29.398438 41.089844 33.125 C 40.929688 33.542969 40.761719 33.953125 40.675781 34.4375 C 40.773438 34.304688 40.882812 34.179688 40.96875 34.039062 C 41.542969 33.082031 42.097656 32.113281 42.695312 31.167969 C 42.84375 30.9375 43.101562 30.753906 43.34375 30.613281 C 44.226562 30.101562 45.179688 29.699219 46.003906 29.109375 C 47.277344 28.199219 47.757812 26.859375 47.378906 25.363281 C 47.058594 24.089844 46.535156 22.867188 46.070312 21.632812 C 45.542969 20.238281 44.863281 18.894531 44.464844 17.46875 C 43.464844 13.890625 44.28125 10.6875 46.949219 8.09375 C 49.136719 5.964844 53.339844 6.882812 54.617188 9.65625 C 55.089844 10.6875 54.875 11.777344 53.96875 12.46875 C 53.445312 12.867188 52.832031 13.140625 52.257812 13.472656 C 52.226562 13.425781 52.191406 13.382812 52.160156 13.335938 Z M 34.148438 30.109375 C 33.023438 30.390625 32.363281 30.242188 32.011719 29.667969 C 31.765625 29.269531 31.796875 28.675781 32.191406 28.402344 C 32.507812 28.183594 32.929688 28.007812 33.304688 28.011719 C 33.691406 28.011719 34.078125 28.253906 34.4375 28.378906 C 34.132812 27.65625 33.347656 27.203125 32.390625 27.230469 C 31.472656 27.257812 30.636719 27.789062 30.386719 28.507812 C 30.191406 29.066406 30.316406 29.578125 30.671875 30.027344 C 31.480469 31.054688 33.160156 31.121094 34.148438 30.109375 Z M 41.296875 29.140625 C 41.257812 29.042969 41.234375 28.941406 41.179688 28.851562 C 40.445312 27.566406 38.246094 27.394531 37.3125 28.550781 C 36.960938 28.988281 36.847656 29.488281 37.042969 30.019531 C 37.324219 30.78125 37.949219 31.125 38.703125 31.253906 C 39.503906 31.390625 40.210938 31.164062 40.835938 30.671875 C 40.308594 30.671875 39.808594 30.738281 39.339844 30.652344 C 38.855469 30.5625 38.519531 30.214844 38.511719 29.667969 C 38.507812 29.125 38.828125 28.8125 39.308594 28.644531 C 40.070312 28.371094 40.71875 28.566406 41.296875 29.140625 Z M 40.664062 15.269531 C 40.082031 14.234375 39.40625 13.386719 38.648438 12.691406 C 38.492188 12.546875 38.359375 12.539062 38.289062 12.707031 C 38.207031 12.914062 38.308594 13.109375 38.457031 13.273438 C 38.496094 13.3125 38.539062 13.34375 38.578125 13.378906 C 39.421875 14.15625 40.136719 15.160156 40.710938 16.367188 C 41.183594 17.359375 41.527344 18.402344 41.722656 19.507812 C 41.972656 20.957031 41.976562 22.285156 41.707031 23.511719 C 41.675781 23.652344 41.644531 23.796875 41.640625 23.953125 C 41.636719 24.214844 41.820312 24.453125 41.972656 24.359375 C 42.058594 24.304688 42.125 24.167969 42.160156 24.027344 C 42.578125 22.167969 42.464844 20.152344 41.839844 18.011719 C 41.53125 17.023438 41.144531 16.121094 40.664062 15.269531 Z M 40.664062 15.269531 " fill-opacity="1" fill-rule="nonzero"/></g><g clip-path="url(#d3069782fa)"><g clip-path="url(#31dd131e4c)"><g clip-path="url(#df862517d4)"><g clip-path="url(#40057c4876)"><path fill="#6850fa" d="M 64.671875 26.074219 C 64.671875 26.074219 64.992188 25.953125 64.824219 25.707031 C 64.824219 25.707031 65.84375 25.136719 65.476562 24 C 65.476562 24 65.726562 23.867188 65.613281 23.625 C 65.613281 23.625 66.429688 23.324219 66.148438 22.15625 C 66.148438 22.15625 66.433594 22.082031 66.285156 21.832031 L 74.6875 0.839844 C 74.6875 0.839844 74.742188 0.664062 74.664062 0.523438 C 74.640625 0.480469 74.589844 0.460938 74.539062 0.472656 C 74.386719 0.515625 74.300781 0.683594 74.300781 0.683594 L 65.390625 21.464844 C 65.109375 21.53125 65.257812 21.785156 65.257812 21.785156 C 64.234375 22.414062 64.597656 23.207031 64.597656 23.207031 C 64.347656 23.296875 64.433594 23.566406 64.433594 23.566406 C 63.367188 24.109375 63.683594 25.234375 63.683594 25.234375 C 63.390625 25.292969 63.535156 25.601562 63.535156 25.601562 C 62.863281 26.132812 62.664062 26.632812 62.667969 27.042969 C 62.675781 27.9375 63.628906 28.332031 64.261719 27.707031 C 64.554688 27.417969 64.769531 26.921875 64.671875 26.074219 " fill-opacity="1" fill-rule="nonzero"/></g></g></g></g><g fill="#6850fa" fill-opacity="1"><g transform="translate(75.098149, 52.175473)"><g><path d="M 13.671875 -12.953125 L 13.671875 -5.25 C 13.671875 -3.976562 13.796875 -3.054688 14.046875 -2.484375 C 14.304688 -1.910156 14.773438 -1.523438 15.453125 -1.328125 C 16.140625 -1.140625 17.21875 -1.046875 18.6875 -1.046875 L 18.6875 0 C 14.613281 -0.09375 11.507812 -0.140625 9.375 -0.140625 C 7.957031 -0.140625 5.976562 -0.109375 3.4375 -0.046875 L 1.265625 0 L 1.265625 -0.90625 C 2.234375 -0.96875 2.9375 -1.085938 3.375 -1.265625 C 3.8125 -1.441406 4.101562 -1.785156 4.25 -2.296875 C 4.40625 -2.816406 4.484375 -3.648438 4.484375 -4.796875 L 4.484375 -27.25 C 4.484375 -28.394531 4.398438 -29.222656 4.234375 -29.734375 C 4.066406 -30.253906 3.769531 -30.601562 3.34375 -30.78125 C 2.925781 -30.957031 2.234375 -31.078125 1.265625 -31.140625 L 1.265625 -32.046875 C 2.984375 -31.953125 5.578125 -31.90625 9.046875 -31.90625 L 14.265625 -31.953125 C 14.859375 -31.984375 15.550781 -32 16.34375 -32 C 20.8125 -32 24.195312 -31.191406 26.5 -29.578125 C 28.8125 -27.960938 29.96875 -25.796875 29.96875 -23.078125 C 29.96875 -21.421875 29.515625 -19.832031 28.609375 -18.3125 C 27.703125 -16.789062 26.160156 -15.515625 23.984375 -14.484375 C 21.816406 -13.460938 18.9375 -12.953125 15.34375 -12.953125 Z M 16.109375 -31.140625 C 15.421875 -31.140625 14.898438 -31.035156 14.546875 -30.828125 C 14.203125 -30.617188 13.96875 -30.238281 13.84375 -29.6875 C 13.726562 -29.144531 13.671875 -28.332031 13.671875 -27.25 L 13.671875 -13.84375 L 14.890625 -13.84375 C 17.003906 -13.84375 18.457031 -14.628906 19.25 -16.203125 C 20.050781 -17.773438 20.453125 -19.90625 20.453125 -22.59375 C 20.453125 -25.519531 20.117188 -27.675781 19.453125 -29.0625 C 18.796875 -30.445312 17.679688 -31.140625 16.109375 -31.140625 Z M 16.109375 -31.140625 "/></g></g></g><g fill="#6850fa" fill-opacity="1"><g transform="translate(105.7921, 52.175473)"><g><path d="M 17.46875 -24.125 C 18.945312 -24.125 20.007812 -23.671875 20.65625 -22.765625 C 21.3125 -21.859375 21.640625 -20.789062 21.640625 -19.5625 C 21.640625 -18.195312 21.253906 -17.113281 20.484375 -16.3125 C 19.710938 -15.519531 18.707031 -15.125 17.46875 -15.125 C 16.175781 -15.125 15.179688 -15.414062 14.484375 -16 C 13.785156 -16.59375 13.4375 -17.382812 13.4375 -18.375 C 13.4375 -20.15625 14.207031 -21.5625 15.75 -22.59375 C 15.207031 -22.59375 14.722656 -22.484375 14.296875 -22.265625 C 13.546875 -21.929688 12.914062 -21.394531 12.40625 -20.65625 C 11.894531 -19.925781 11.640625 -19.117188 11.640625 -18.234375 L 11.640625 -4.65625 C 11.640625 -3.238281 11.929688 -2.265625 12.515625 -1.734375 C 13.109375 -1.210938 14.113281 -0.953125 15.53125 -0.953125 L 15.53125 0 C 15.132812 0 14.800781 -0.015625 14.53125 -0.046875 C 11.363281 -0.140625 9.25 -0.1875 8.1875 -0.1875 C 7.257812 -0.1875 5.164062 -0.140625 1.90625 -0.046875 C 1.65625 -0.015625 1.335938 0 0.953125 0 L 0.953125 -0.953125 C 1.890625 -0.953125 2.546875 -1.1875 2.921875 -1.65625 C 3.296875 -2.125 3.484375 -2.972656 3.484375 -4.203125 L 3.484375 -18.5625 C 3.484375 -19.945312 3.296875 -20.957031 2.921875 -21.59375 C 2.546875 -22.226562 1.890625 -22.546875 0.953125 -22.546875 L 0.953125 -23.5 C 1.921875 -23.40625 2.851562 -23.359375 3.75 -23.359375 C 6.894531 -23.359375 9.523438 -23.566406 11.640625 -23.984375 L 11.640625 -20.734375 C 12.785156 -22.992188 14.726562 -24.125 17.46875 -24.125 Z M 17.46875 -24.125 "/></g></g></g><g fill="#6850fa" fill-opacity="1"><g transform="translate(127.567597, 52.175473)"><g><path d="M 13.03125 -24.125 C 16.75 -24.125 19.617188 -23.148438 21.640625 -21.203125 C 23.660156 -19.253906 24.671875 -16.09375 24.671875 -11.71875 C 24.671875 -7.34375 23.660156 -4.1875 21.640625 -2.25 C 19.617188 -0.320312 16.75 0.640625 13.03125 0.640625 C 9.320312 0.640625 6.457031 -0.320312 4.4375 -2.25 C 2.414062 -4.1875 1.40625 -7.34375 1.40625 -11.71875 C 1.40625 -16.09375 2.414062 -19.253906 4.4375 -21.203125 C 6.457031 -23.148438 9.320312 -24.125 13.03125 -24.125 Z M 13.03125 -23.21875 C 12.070312 -23.21875 11.304688 -22.265625 10.734375 -20.359375 C 10.160156 -18.460938 9.875 -15.582031 9.875 -11.71875 C 9.875 -7.863281 10.160156 -4.988281 10.734375 -3.09375 C 11.304688 -1.207031 12.070312 -0.265625 13.03125 -0.265625 C 14 -0.265625 14.769531 -1.207031 15.34375 -3.09375 C 15.914062 -4.988281 16.203125 -7.863281 16.203125 -11.71875 C 16.203125 -15.582031 15.914062 -18.460938 15.34375 -20.359375 C 14.769531 -22.265625 14 -23.21875 13.03125 -23.21875 Z M 13.03125 -23.21875 "/></g></g></g><g fill="#6850fa" fill-opacity="1"><g transform="translate(153.643873, 52.175473)"><g><path d="M 28.96875 -3.796875 C 29.363281 -2.835938 29.796875 -2.125 30.265625 -1.65625 C 30.734375 -1.1875 31.191406 -0.9375 31.640625 -0.90625 L 31.640625 0 C 29.460938 -0.09375 26.71875 -0.140625 23.40625 -0.140625 C 19.957031 -0.140625 17.421875 -0.09375 15.796875 0 L 15.796875 -0.90625 C 16.941406 -0.96875 17.753906 -1.109375 18.234375 -1.328125 C 18.722656 -1.554688 18.96875 -1.957031 18.96875 -2.53125 C 18.96875 -3.070312 18.785156 -3.796875 18.421875 -4.703125 L 15.75 -12.125 L 6.609375 -12.125 L 5.84375 -10.09375 C 4.84375 -7.53125 4.34375 -5.566406 4.34375 -4.203125 C 4.34375 -2.972656 4.6875 -2.128906 5.375 -1.671875 C 6.070312 -1.222656 7.101562 -0.96875 8.46875 -0.90625 L 8.46875 0 C 6.195312 -0.09375 4.21875 -0.140625 2.53125 -0.140625 C 1.113281 -0.140625 -0.046875 -0.09375 -0.953125 0 L -0.953125 -0.90625 C -0.191406 -1.03125 0.515625 -1.5 1.171875 -2.3125 C 1.835938 -3.125 2.519531 -4.421875 3.21875 -6.203125 L 13.265625 -32.046875 C 14.234375 -31.984375 15.03125 -31.953125 15.65625 -31.953125 C 16.257812 -31.953125 17.046875 -31.984375 18.015625 -32.046875 Z M 15.4375 -13.03125 L 11.3125 -24.359375 L 6.96875 -13.03125 Z M 15.4375 -13.03125 "/></g></g></g><g fill="#6850fa" fill-opacity="1"><g transform="translate(184.971618, 52.175473)"><g><path d="M 16.890625 -31.140625 C 15.921875 -31.078125 15.21875 -30.957031 14.78125 -30.78125 C 14.34375 -30.601562 14.046875 -30.253906 13.890625 -29.734375 C 13.742188 -29.222656 13.671875 -28.394531 13.671875 -27.25 L 13.671875 -4.796875 C 13.671875 -3.648438 13.753906 -2.816406 13.921875 -2.296875 C 14.085938 -1.785156 14.378906 -1.441406 14.796875 -1.265625 C 15.222656 -1.085938 15.921875 -0.96875 16.890625 -0.90625 L 16.890625 0 C 15.140625 -0.09375 12.617188 -0.140625 9.328125 -0.140625 C 5.671875 -0.140625 2.984375 -0.09375 1.265625 0 L 1.265625 -0.90625 C 2.234375 -0.96875 2.9375 -1.085938 3.375 -1.265625 C 3.8125 -1.441406 4.101562 -1.785156 4.25 -2.296875 C 4.40625 -2.816406 4.484375 -3.648438 4.484375 -4.796875 L 4.484375 -27.25 C 4.484375 -28.394531 4.398438 -29.222656 4.234375 -29.734375 C 4.066406 -30.253906 3.769531 -30.601562 3.34375 -30.78125 C 2.925781 -30.957031 2.234375 -31.078125 1.265625 -31.140625 L 1.265625 -32.046875 C 2.984375 -31.953125 5.671875 -31.90625 9.328125 -31.90625 C 12.585938 -31.90625 15.109375 -31.953125 16.890625 -32.046875 Z M 16.890625 -31.140625 "/></g></g></g><g fill="#6850fa" fill-opacity="1"><g transform="translate(205.020963, 52.175473)"><g><path d="M 41.546875 -31.90625 C 42.878906 -31.90625 44.03125 -31.953125 45 -32.046875 L 44.765625 -31.140625 C 42.984375 -30.742188 41.550781 -29.429688 40.46875 -27.203125 L 26.9375 0.21875 L 26.203125 0.21875 L 22.953125 -20.421875 L 10.6875 0.21875 L 9.953125 0.21875 L 6.375 -28.25 C 6.132812 -30.113281 5.304688 -31.078125 3.890625 -31.140625 L 4.078125 -32.046875 C 5.285156 -31.953125 6.78125 -31.90625 8.5625 -31.90625 C 10.726562 -31.90625 12.351562 -31.953125 13.4375 -32.046875 L 13.265625 -31.140625 C 12.328125 -31.078125 11.65625 -30.863281 11.25 -30.5 C 10.84375 -30.144531 10.640625 -29.484375 10.640625 -28.515625 C 10.640625 -28.335938 10.671875 -27.945312 10.734375 -27.34375 L 13.265625 -5.75 L 22.71875 -21.8125 L 21.734375 -28.25 C 21.429688 -30.113281 20.75 -31.078125 19.6875 -31.140625 L 19.875 -32.046875 C 20.957031 -31.953125 22.300781 -31.90625 23.90625 -31.90625 C 26.5 -31.90625 28.425781 -31.953125 29.6875 -32.046875 L 29.515625 -31.140625 C 28.148438 -31.078125 27.210938 -30.894531 26.703125 -30.59375 C 26.191406 -30.289062 25.9375 -29.6875 25.9375 -28.78125 C 25.9375 -28.363281 25.984375 -27.882812 26.078125 -27.34375 L 29.328125 -6.75 L 38.15625 -24.71875 C 39.15625 -26.769531 39.65625 -28.234375 39.65625 -29.109375 C 39.65625 -29.859375 39.375 -30.375 38.8125 -30.65625 C 38.257812 -30.945312 37.378906 -31.109375 36.171875 -31.140625 L 36.390625 -32.046875 C 38.078125 -31.953125 39.796875 -31.90625 41.546875 -31.90625 Z M 41.546875 -31.90625 "/></g></g></g><g fill="#6850fa" fill-opacity="1"><g transform="translate(245.855681, 52.175473)"><g><path d="M 17.875 -23.90625 C 18.695312 -23.90625 19.347656 -23.660156 19.828125 -23.171875 C 20.304688 -22.691406 20.546875 -22.070312 20.546875 -21.3125 C 20.546875 -20.414062 20.226562 -19.648438 19.59375 -19.015625 C 18.96875 -18.378906 18.226562 -18.0625 17.375 -18.0625 C 16.832031 -18.0625 16.394531 -18.203125 16.0625 -18.484375 C 15.738281 -18.773438 15.578125 -19.175781 15.578125 -19.6875 C 15.578125 -20.382812 15.753906 -20.972656 16.109375 -21.453125 C 16.472656 -21.941406 16.972656 -22.320312 17.609375 -22.59375 C 17.484375 -22.707031 17.316406 -22.765625 17.109375 -22.765625 C 15.484375 -22.765625 13.710938 -21.003906 11.796875 -17.484375 C 9.878906 -13.972656 8.070312 -9.335938 6.375 -3.578125 L 5.484375 0 L 1.53125 0 L 6.96875 -19.421875 C 7.175781 -20.085938 7.28125 -20.675781 7.28125 -21.1875 C 7.28125 -21.875 6.96875 -22.21875 6.34375 -22.21875 C 5.675781 -22.21875 5.0625 -21.863281 4.5 -21.15625 C 3.945312 -20.445312 3.382812 -19.265625 2.8125 -17.609375 L 2.21875 -15.9375 L 1.359375 -15.9375 L 2.484375 -19.234375 C 3.578125 -22.347656 5.40625 -23.90625 7.96875 -23.90625 C 9.6875 -23.90625 10.546875 -23.03125 10.546875 -21.28125 C 10.546875 -20.425781 10.332031 -19.1875 9.90625 -17.5625 L 8.46875 -11.859375 C 10.09375 -16.234375 11.617188 -19.332031 13.046875 -21.15625 C 14.484375 -22.988281 16.09375 -23.90625 17.875 -23.90625 Z M 17.875 -23.90625 "/></g></g></g><g fill="#6850fa" fill-opacity="1"><g transform="translate(265.141262, 52.175473)"><g><path d="M 8.515625 -30.921875 C 8.515625 -31.828125 8.851562 -32.632812 9.53125 -33.34375 C 10.207031 -34.050781 10.984375 -34.40625 11.859375 -34.40625 C 12.554688 -34.40625 13.113281 -34.175781 13.53125 -33.71875 C 13.957031 -33.269531 14.171875 -32.710938 14.171875 -32.046875 C 14.171875 -31.140625 13.820312 -30.335938 13.125 -29.640625 C 12.425781 -28.953125 11.640625 -28.609375 10.765625 -28.609375 C 10.109375 -28.609375 9.566406 -28.828125 9.140625 -29.265625 C 8.722656 -29.703125 8.515625 -30.253906 8.515625 -30.921875 Z M 7.15625 -19.421875 C 7.394531 -20.140625 7.515625 -20.695312 7.515625 -21.09375 C 7.515625 -21.84375 7.179688 -22.21875 6.515625 -22.21875 C 5.828125 -22.21875 5.207031 -21.851562 4.65625 -21.125 C 4.113281 -20.40625 3.539062 -19.234375 2.9375 -17.609375 L 2.3125 -15.9375 L 1.453125 -15.9375 L 2.625 -19.234375 C 3.226562 -20.953125 4.035156 -22.160156 5.046875 -22.859375 C 6.054688 -23.554688 7.117188 -23.90625 8.234375 -23.90625 C 10.222656 -23.90625 11.21875 -22.953125 11.21875 -21.046875 C 11.21875 -20.054688 10.976562 -18.894531 10.5 -17.5625 L 5.65625 -3.84375 C 5.414062 -3.125 5.296875 -2.566406 5.296875 -2.171875 C 5.296875 -1.421875 5.65625 -1.046875 6.375 -1.046875 C 7.007812 -1.046875 7.597656 -1.390625 8.140625 -2.078125 C 8.691406 -2.773438 9.28125 -3.96875 9.90625 -5.65625 L 10.546875 -7.328125 L 11.40625 -7.328125 L 10.234375 -4.03125 C 9.628906 -2.363281 8.832031 -1.164062 7.84375 -0.4375 C 6.863281 0.28125 5.800781 0.640625 4.65625 0.640625 C 2.550781 0.640625 1.5 -0.28125 1.5 -2.125 C 1.5 -3 1.769531 -4.191406 2.3125 -5.703125 Z M 7.15625 -19.421875 "/></g></g></g><g fill="#6850fa" fill-opacity="1"><g transform="translate(278.813201, 52.175473)"><g><path d="M 5.484375 -3.84375 C 5.390625 -3.476562 5.34375 -3.148438 5.34375 -2.859375 C 5.34375 -2.253906 5.519531 -1.800781 5.875 -1.5 C 6.238281 -1.195312 6.707031 -1.046875 7.28125 -1.046875 C 8.039062 -1.046875 8.742188 -1.367188 9.390625 -2.015625 C 10.035156 -2.660156 10.675781 -3.84375 11.3125 -5.5625 L 11.953125 -7.328125 L 12.8125 -7.328125 L 11.859375 -4.484375 C 11.222656 -2.609375 10.398438 -1.285156 9.390625 -0.515625 C 8.378906 0.253906 7.132812 0.640625 5.65625 0.640625 C 4.300781 0.640625 3.289062 0.304688 2.625 -0.359375 C 1.957031 -1.023438 1.625 -1.945312 1.625 -3.125 C 1.625 -3.90625 1.757812 -4.765625 2.03125 -5.703125 L 6.828125 -22.359375 L 2.765625 -22.359375 L 2.984375 -23.265625 L 7.0625 -23.265625 L 9.046875 -30.140625 C 10.679688 -30.203125 12.039062 -30.414062 13.125 -30.78125 L 11 -23.265625 L 16.96875 -23.265625 L 16.84375 -22.359375 L 10.734375 -22.359375 Z M 5.484375 -3.84375 "/></g></g></g><g fill="#6850fa" fill-opacity="1"><g transform="translate(294.024366, 52.175473)"><g><path d="M 18.828125 -20.90625 C 18.828125 -18.46875 17.453125 -16.328125 14.703125 -14.484375 C 11.960938 -12.640625 8.828125 -11.144531 5.296875 -10 C 4.960938 -8.488281 4.796875 -7.023438 4.796875 -5.609375 C 4.796875 -2.710938 5.835938 -1.265625 7.921875 -1.265625 C 10.515625 -1.265625 12.835938 -2.773438 14.890625 -5.796875 L 15.609375 -5.4375 C 14.648438 -3.769531 13.347656 -2.335938 11.703125 -1.140625 C 10.054688 0.046875 8.328125 0.640625 6.515625 0.640625 C 4.648438 0.640625 3.1875 0.0976562 2.125 -0.984375 C 1.070312 -2.078125 0.546875 -3.664062 0.546875 -5.75 C 0.546875 -8.039062 1.21875 -10.625 2.5625 -13.5 C 3.90625 -16.382812 5.722656 -18.835938 8.015625 -20.859375 C 10.304688 -22.890625 12.796875 -23.90625 15.484375 -23.90625 C 16.441406 -23.90625 17.238281 -23.644531 17.875 -23.125 C 18.507812 -22.613281 18.828125 -21.875 18.828125 -20.90625 Z M 14.484375 -23.046875 C 13.515625 -23.046875 12.429688 -22.476562 11.234375 -21.34375 C 10.046875 -20.207031 8.929688 -18.703125 7.890625 -16.828125 C 6.859375 -14.960938 6.066406 -12.972656 5.515625 -10.859375 C 8.390625 -11.859375 10.441406 -12.828125 11.671875 -13.765625 C 12.796875 -14.640625 13.664062 -15.703125 14.28125 -16.953125 C 14.894531 -18.203125 15.203125 -19.550781 15.203125 -21 C 15.203125 -21.8125 15.140625 -22.351562 15.015625 -22.625 C 14.898438 -22.90625 14.722656 -23.046875 14.484375 -23.046875 Z M 14.484375 -23.046875 "/></g></g></g><g fill="#6850fa" fill-opacity="1"><g transform="translate(313.445758, 52.175473)"><g><path d="M 17.875 -23.90625 C 18.695312 -23.90625 19.347656 -23.660156 19.828125 -23.171875 C 20.304688 -22.691406 20.546875 -22.070312 20.546875 -21.3125 C 20.546875 -20.414062 20.226562 -19.648438 19.59375 -19.015625 C 18.96875 -18.378906 18.226562 -18.0625 17.375 -18.0625 C 16.832031 -18.0625 16.394531 -18.203125 16.0625 -18.484375 C 15.738281 -18.773438 15.578125 -19.175781 15.578125 -19.6875 C 15.578125 -20.382812 15.753906 -20.972656 16.109375 -21.453125 C 16.472656 -21.941406 16.972656 -22.320312 17.609375 -22.59375 C 17.484375 -22.707031 17.316406 -22.765625 17.109375 -22.765625 C 15.484375 -22.765625 13.710938 -21.003906 11.796875 -17.484375 C 9.878906 -13.972656 8.070312 -9.335938 6.375 -3.578125 L 5.484375 0 L 1.53125 0 L 6.96875 -19.421875 C 7.175781 -20.085938 7.28125 -20.675781 7.28125 -21.1875 C 7.28125 -21.875 6.96875 -22.21875 6.34375 -22.21875 C 5.675781 -22.21875 5.0625 -21.863281 4.5 -21.15625 C 3.945312 -20.445312 3.382812 -19.265625 2.8125 -17.609375 L 2.21875 -15.9375 L 1.359375 -15.9375 L 2.484375 -19.234375 C 3.578125 -22.347656 5.40625 -23.90625 7.96875 -23.90625 C 9.6875 -23.90625 10.546875 -23.03125 10.546875 -21.28125 C 10.546875 -20.425781 10.332031 -19.1875 9.90625 -17.5625 L 8.46875 -11.859375 C 10.09375 -16.234375 11.617188 -19.332031 13.046875 -21.15625 C 14.484375 -22.988281 16.09375 -23.90625 17.875 -23.90625 Z M 17.875 -23.90625 "/></g></g></g></g></g></svg>